<svg width="50" height="50" viewBox="0 0 50 50" fill="none" xmlns="http://www.w3.org/2000/svg">
<path d="M25 3.66663C19.2062 3.66663 18.4797 3.69118 16.2043 3.795C13.9336 3.89866 12.3828 4.25923 11.0258 4.78664C9.62292 5.33182 8.43321 6.06128 7.24723 7.24726C6.06125 8.43324 5.3318 9.62294 4.78661 11.0258C4.25921 12.3827 3.89863 13.9335 3.79498 16.2042C3.69116 18.4796 3.66669 19.2061 3.66669 24.9999C3.66669 30.7937 3.69116 31.5201 3.79498 33.7956C3.89863 36.0662 4.25921 37.617 4.78661 38.974C5.3318 40.3768 6.06125 41.5665 7.24723 42.7526C8.43321 43.9386 9.62292 44.668 11.0258 45.2132C12.3828 45.7405 13.9336 46.1012 16.2043 46.2048C18.4797 46.3086 19.2062 46.3331 25 46.3331C30.7937 46.3331 31.5202 46.3086 33.7956 46.2048C36.0663 46.1012 37.6171 45.7405 38.974 45.2132C40.3769 44.668 41.5666 43.9386 42.7527 42.7526C43.9386 41.5665 44.6681 40.3768 45.2133 38.974C45.7406 37.617 46.1013 36.0662 46.2048 33.7956C46.3087 31.5201 46.3332 30.7937 46.3332 24.9999C46.3332 19.2061 46.3087 18.4796 46.2048 16.2042C46.1013 13.9335 45.7406 12.3827 45.2133 11.0258C44.6681 9.62294 43.9386 8.43324 42.7527 7.24726C41.5666 6.06128 40.3769 5.33182 38.974 4.78664C37.6171 4.25923 36.0663 3.89866 33.7956 3.795C31.5202 3.69118 30.7937 3.66663 25 3.66663ZM25 7.51053C30.6962 7.51053 31.3709 7.53221 33.6204 7.63485C35.7004 7.72978 36.83 8.07731 37.5817 8.36938C38.5775 8.75638 39.2881 9.21875 40.0346 9.96523C40.7812 10.7117 41.2435 11.4224 41.6304 12.4181C41.9226 13.1699 42.2701 14.2994 42.365 16.3794C42.4676 18.6289 42.4894 19.3037 42.4894 24.9999C42.4894 30.6961 42.4676 31.3708 42.365 33.6204C42.2701 35.7003 41.9226 36.8299 41.6304 37.5816C41.2435 38.5774 40.7812 39.2881 40.0346 40.0345C39.2881 40.7811 38.5775 41.2434 37.5817 41.6304C36.83 41.9225 35.7004 42.2701 33.6204 42.3649C31.3712 42.4676 30.6966 42.4893 25 42.4893C19.3033 42.4893 18.6287 42.4676 16.3795 42.3649C14.2995 42.2701 13.1699 41.9225 12.4182 41.6304C11.4224 41.2434 10.7118 40.7811 9.9652 40.0345C9.21873 39.2881 8.75636 38.5774 8.36945 37.5816C8.07729 36.8299 7.72975 35.7003 7.63482 33.6204C7.53219 31.3708 7.51051 30.6961 7.51051 24.9999C7.51051 19.3037 7.53219 18.6289 7.63482 16.3794C7.72975 14.2994 8.07729 13.1699 8.36945 12.4181C8.75636 11.4224 9.21873 10.7117 9.9652 9.96523C10.7118 9.21875 11.4224 8.75638 12.4182 8.36938C13.1699 8.07731 14.2995 7.72978 16.3795 7.63485C18.629 7.53221 19.3037 7.51053 25 7.51053Z" fill="white"/>
<path d="M25 32.1109C21.0726 32.1109 17.8889 28.9272 17.8889 24.9999C17.8889 21.0725 21.0726 17.8887 25 17.8887C28.9273 17.8887 32.111 21.0725 32.111 24.9999C32.111 28.9272 28.9273 32.1109 25 32.1109ZM25 14.0449C18.9497 14.0449 14.045 18.9496 14.045 24.9999C14.045 31.0501 18.9497 35.9547 25 35.9547C31.0502 35.9547 35.9549 31.0501 35.9549 24.9999C35.9549 18.9496 31.0502 14.0449 25 14.0449Z" fill="white"/>
<path d="M38.9477 13.6122C38.9477 15.0261 37.8015 16.1722 36.3877 16.1722C34.9739 16.1722 33.8277 15.0261 33.8277 13.6122C33.8277 12.1983 34.9739 11.0522 36.3877 11.0522C37.8015 11.0522 38.9477 12.1983 38.9477 13.6122Z" fill="white"/>
</svg>
