<svg width="48" height="48" viewBox="0 0 48 48" fill="none" xmlns="http://www.w3.org/2000/svg">
<path d="M11.6356 15.5887H1.63098V46.4297H11.6356V15.5887Z" fill="white"/>
<path d="M38.8865 15.9504C38.7803 15.9172 38.6796 15.8808 38.5681 15.8494C38.4333 15.8187 38.2995 15.7931 38.1623 15.7713C37.6315 15.6645 37.0491 15.5888 36.3672 15.5888C30.5349 15.5888 26.8349 19.8425 25.6165 21.4852V15.5887H15.6118V46.4297H25.6164V29.6075C25.6164 29.6075 33.1767 19.0486 36.3671 26.8033V46.4297H46.3691V25.6178C46.3691 20.9577 43.184 17.0747 38.8865 15.9504Z" fill="white"/>
<path d="M11.4177 6.47672C11.4177 9.18694 9.22651 11.3833 6.52445 11.3833C3.8222 11.3833 1.63107 9.18684 1.63107 6.47672C1.63107 3.76706 3.8222 1.57031 6.52445 1.57031C9.22651 1.57031 11.4177 3.76706 11.4177 6.47672Z" fill="white"/>
</svg>
