<svg width="512" height="512" viewBox="0 0 512 512" fill="none" xmlns="http://www.w3.org/2000/svg">
<path d="M441.13 166.52H69.13C65.1518 166.52 61.3364 164.94 58.5234 162.127C55.7104 159.314 54.13 155.498 54.13 151.52C54.13 147.542 55.7104 143.726 58.5234 140.913C61.3364 138.1 65.1518 136.52 69.13 136.52H441.13C445.108 136.52 448.924 138.1 451.737 140.913C454.55 143.726 456.13 147.542 456.13 151.52C456.13 155.498 454.55 159.314 451.737 162.127C448.924 164.94 445.108 166.52 441.13 166.52Z" fill="black"/>
<path d="M441.13 279.72H69.13C65.1518 279.72 61.3364 278.14 58.5234 275.327C55.7104 272.514 54.13 268.698 54.13 264.72C54.13 260.742 55.7104 256.926 58.5234 254.113C61.3364 251.3 65.1518 249.72 69.13 249.72H441.13C445.108 249.72 448.924 251.3 451.737 254.113C454.55 256.926 456.13 260.742 456.13 264.72C456.13 268.698 454.55 272.514 451.737 275.327C448.924 278.14 445.108 279.72 441.13 279.72Z" fill="black"/>
<path d="M441.13 392.92H69.13C65.1518 392.92 61.3364 391.34 58.5234 388.527C55.7104 385.714 54.13 381.898 54.13 377.92C54.13 373.942 55.7104 370.126 58.5234 367.313C61.3364 364.5 65.1518 362.92 69.13 362.92H441.13C445.108 362.92 448.924 364.5 451.737 367.313C454.55 370.126 456.13 373.942 456.13 377.92C456.13 381.898 454.55 385.714 451.737 388.527C448.924 391.34 445.108 392.92 441.13 392.92Z" fill="black"/>
</svg>
